<svg width="100%" viewBox="0 0 203 157" fill="none" className="svg-icon svg-icon-rank-9 top-10-rank last"><path d="M34.757 151.55H70.626V2.976L2 19.687V49.827L34.757 41.417V151.549V151.55ZM140.287 155C152.681 155 163.384 151.88 172.45 145.647C181.543 139.397 188.56 130.6 193.516 119.217C198.5 107.766 201 94.196 201 78.5C201 62.802 198.5 49.234 193.516 37.784C188.561 26.4 181.543 17.604 172.45 11.353C163.384 5.119 152.681 2 140.287 2C127.894 2 117.191 5.12 108.125 11.353C99.032 17.603 92.015 26.4 87.059 37.783C82.075 49.233 79.575 62.803 79.575 78.5C79.575 94.198 82.075 107.766 87.059 119.216C92.014 130.6 99.032 139.396 108.125 145.647C117.191 151.881 127.894 155 140.287 155V155ZM140.287 123.632C132.46 123.632 126.345 119.485 122.137 111.454C118.084 103.718 116.09 92.741 116.09 78.5C116.09 64.259 118.084 53.282 122.137 45.546C126.345 37.516 132.46 33.368 140.287 33.368C148.114 33.368 154.23 37.515 158.437 45.546C162.49 53.282 164.485 64.259 164.485 78.5C164.485 92.741 162.49 103.718 158.438 111.454C154.23 119.484 148.114 123.632 140.288 123.632H140.287Z" fill="black" stroke="#595959" stroke-width="4"/></svg>
